<svg xmlns="http://www.w3.org/2000/svg" viewBox="75 215 185 175" role="img" aria-label="SytFix mark">
  <title>SytFix</title>
  <g transform="translate(0,600) scale(0.1,-0.1)">
    <g fill="#F4F4EE">
      <path d="M1510 3680 l0 -40 45 0 45 0 0 40 0 40 -45 0 -45 0 0 -40z"/>
      <path d="M1335 3686 c-131 -42 -212 -92 -315 -196 -79 -78 -104 -111 -142 -185 -45 -89 -78 -183 -78 -224 0 -18 6 -21 39 -21 37 0 39 2 46 38 19 106 118 277 204 355 86 78 199 139 309 167 41 10 42 12 42 50 0 48 -5 49 -105 16z"/>
      <path d="M1682 3669 c3 -41 3 -42 57 -56 139 -35 300 -153 384 -281 47 -71 91 -172 102 -234 7 -37 8 -38 50 -38 l43 0 -13 58 c-62 263 -260 477 -527 568 -97 33 -100 32 -96 -17z"/>
      <path d="M780 2940 l0 -40 45 0 45 0 0 40 0 40 -45 0 -45 0 0 -40z"/>
      <path d="M2240 2941 c0 -36 2 -39 37 -44 47 -8 53 -3 53 44 l0 39 -45 0 -45 0 0 -39z"/>
      <path d="M800 2804 c0 -60 67 -228 123 -308 72 -103 160 -184 268 -245 63 -35 190 -81 226 -81 20 0 23 5 23 39 0 37 -2 39 -37 46 -113 21 -253 105 -348 208 -73 78 -145 210 -166 301 l-12 56 -39 0 c-28 0 -38 -4 -38 -16z"/>
      <path d="M2231 2798 c-5 -13 -12 -38 -16 -57 -43 -201 -258 -417 -473 -477 l-62 -17 0 -40 0 -40 42 7 c22 4 74 20 114 37 184 77 329 212 410 384 35 74 76 209 66 219 -3 3 -20 6 -39 6 -26 0 -35 -5 -42 -22z"/>
      <path d="M1514 2226 c-3 -8 -4 -27 -2 -43 3 -25 7 -28 46 -31 l42 -3 0 45 0 46 -40 0 c-26 0 -43 -5 -46 -14z"/>
    </g>
    <g fill="#B8EF1B">
      <path d="M1540 3266 l0 -296 -30 0 c-29 0 -30 -2 -30 -44 0 -39 -4 -46 -40 -71 l-40 -28 0 -128 0 -128 76 -108 c41 -59 78 -109 82 -110 4 -1 42 50 85 114 l77 116 0 121 0 121 -45 30 c-41 28 -45 33 -45 73 0 38 -2 42 -25 42 l-25 0 -2 292 c-3 270 -4 293 -20 296 -17 3 -18 -16 -18 -292z"/>
    </g>
  </g>
</svg>