<svg xmlns="http://www.w3.org/2000/svg" viewBox="75 215 530 175" role="img" aria-label="SytFix">
  <title>SytFix</title>
  <g transform="translate(0,600) scale(0.1,-0.1)">
    <g fill="#F4F4EE">
      <path d="M1510 3680 l0 -40 45 0 45 0 0 40 0 40 -45 0 -45 0 0 -40z"/>
      <path d="M1335 3686 c-131 -42 -212 -92 -315 -196 -79 -78 -104 -111 -142 -185 -45 -89 -78 -183 -78 -224 0 -18 6 -21 39 -21 37 0 39 2 46 38 19 106 118 277 204 355 86 78 199 139 309 167 41 10 42 12 42 50 0 48 -5 49 -105 16z"/>
      <path d="M1682 3669 c3 -41 3 -42 57 -56 139 -35 300 -153 384 -281 47 -71 91 -172 102 -234 7 -37 8 -38 50 -38 l43 0 -13 58 c-62 263 -260 477 -527 568 -97 33 -100 32 -96 -17z"/>
      <path d="M4317 3416 c-49 -18 -67 -34 -84 -73 -20 -49 -16 -82 17 -146 33 -61 32 -63 -23 -69 -36 -4 -35 -20 4 -33 16 -6 34 -17 39 -25 13 -20 13 -356 0 -380 -5 -10 -21 -21 -35 -24 -14 -4 -25 -13 -25 -21 0 -13 23 -15 139 -15 92 0 142 4 147 11 9 15 -14 29 -46 29 -48 0 -50 11 -50 222 l0 198 44 0 c54 0 76 8 76 26 0 10 -15 14 -59 14 -57 0 -60 1 -78 34 -10 19 -31 52 -46 74 -39 55 -45 100 -17 135 14 18 31 27 50 27 41 0 60 -24 60 -75 0 -34 5 -47 22 -59 71 -50 122 42 62 113 -40 48 -122 63 -197 37z"/>
      <path d="M2743 3394 c-75 -27 -133 -113 -133 -199 0 -114 70 -188 235 -250 143 -53 185 -93 185 -176 0 -33 -6 -47 -34 -75 -31 -31 -39 -34 -92 -34 -86 0 -149 39 -205 125 -23 36 -47 64 -53 62 -15 -6 -12 -58 9 -149 18 -82 29 -92 60 -58 23 25 32 25 86 0 67 -30 170 -27 238 6 69 35 103 86 109 164 6 77 -10 121 -60 165 -37 34 -72 53 -223 118 -101 44 -146 112 -125 187 26 92 131 122 236 67 39 -20 97 -84 124 -137 22 -42 31 -48 48 -27 15 18 -47 221 -70 225 -9 2 -22 -6 -28 -17 -13 -26 -26 -26 -81 -1 -53 24 -164 26 -226 4z"/>
      <path d="M3927 3224 c-17 -26 -37 -54 -44 -63 -9 -13 -37 -17 -147 -21 -133 -5 -170 -16 -108 -32 17 -5 33 -15 36 -24 5 -13 -106 -316 -124 -337 -8 -9 -140 304 -140 333 0 13 10 22 32 28 17 4 33 13 36 20 3 9 -31 12 -132 12 -114 0 -136 -2 -136 -15 0 -8 6 -15 14 -15 26 0 52 -47 156 -285 l103 -235 -13 -41 c-8 -23 -26 -61 -42 -85 -39 -62 -77 -58 -93 9 -9 35 -49 67 -76 60 -26 -7 -42 -47 -34 -84 20 -89 161 -108 222 -29 23 28 64 122 164 372 120 301 121 303 158 316 25 9 93 1 103 -11 0 -1 4 -96 7 -210 l6 -209 27 -23 c56 -48 165 -40 212 16 25 29 35 69 18 69 -5 0 -19 -11 -32 -25 -39 -41 -92 -27 -105 28 -3 12 -4 99 -3 192 l3 170 68 3 c49 2 67 7 67 17 0 10 -18 15 -67 17 l-68 3 -3 63 c-4 77 -19 81 -65 16z"/>
      <path d="M4642 3123 c-73 -25 -89 -45 -41 -52 13 -1 27 -8 31 -15 4 -6 8 -91 8 -189 l0 -178 -36 -21 c-21 -12 -32 -24 -26 -30 14 -14 235 -6 239 9 3 7 -7 15 -21 19 -14 3 -27 7 -28 8 -1 0 -5 107 -8 236 -6 273 3 256 -118 213z"/>
      <path d="M4860 3126 c0 -8 9 -18 21 -21 22 -7 169 -200 169 -223 0 -32 -152 -210 -192 -225 -9 -3 -10 -8 -2 -16 7 -8 40 -11 94 -9 89 3 113 18 60 36 -42 15 -39 38 19 117 l49 67 56 -75 c31 -42 56 -82 56 -89 0 -8 -14 -19 -31 -25 -58 -22 -22 -33 106 -33 135 0 158 9 111 43 -30 22 -179 214 -179 231 0 21 135 186 164 201 49 26 34 35 -60 35 -94 0 -124 -13 -72 -31 21 -7 31 -18 31 -31 0 -19 -78 -137 -91 -138 -11 0 -109 143 -103 152 3 5 17 13 31 19 50 19 10 29 -113 29 -101 0 -124 -3 -124 -14z"/>
      <path d="M780 2940 l0 -40 45 0 45 0 0 40 0 40 -45 0 -45 0 0 -40z"/>
      <path d="M2240 2941 c0 -36 2 -39 37 -44 47 -8 53 -3 53 44 l0 39 -45 0 -45 0 0 -39z"/>
      <path d="M800 2804 c0 -60 67 -228 123 -308 72 -103 160 -184 268 -245 63 -35 190 -81 226 -81 20 0 23 5 23 39 0 37 -2 39 -37 46 -113 21 -253 105 -348 208 -73 78 -145 210 -166 301 l-12 56 -39 0 c-28 0 -38 -4 -38 -16z"/>
      <path d="M2231 2798 c-5 -13 -12 -38 -16 -57 -43 -201 -258 -417 -473 -477 l-62 -17 0 -40 0 -40 42 7 c22 4 74 20 114 37 184 77 329 212 410 384 35 74 76 209 66 219 -3 3 -20 6 -39 6 -26 0 -35 -5 -42 -22z"/>
      <path d="M1514 2226 c-3 -8 -4 -27 -2 -43 3 -25 7 -28 46 -31 l42 -3 0 45 0 46 -40 0 c-26 0 -43 -5 -46 -14z"/>
    </g>
    <g fill="#B8EF1B">
      <path d="M1540 3266 l0 -296 -30 0 c-29 0 -30 -2 -30 -44 0 -39 -4 -46 -40 -71 l-40 -28 0 -128 0 -128 76 -108 c41 -59 78 -109 82 -110 4 -1 42 50 85 114 l77 116 0 121 0 121 -45 30 c-41 28 -45 33 -45 73 0 38 -2 42 -25 42 l-25 0 -2 292 c-3 270 -4 293 -20 296 -17 3 -18 -16 -18 -292z"/>
      <path d="M3280 3349 c-36 -28 -67 -52 -69 -55 -2 -2 113 -4 257 -4 l262 0 0 55 0 55 -192 -1 -193 0 -65 -50z"/>
      <path d="M4635 3375 c-16 -15 -25 -36 -25 -55 0 -19 9 -40 25 -55 15 -16 36 -25 55 -25 19 0 40 9 55 25 16 15 25 36 25 55 0 19 -9 40 -25 55 -15 16 -36 25 -55 25 -19 0 -40 -9 -55 -25z"/>
    </g>
  </g>
</svg>